<svg xmlns="http://www.w3.org/2000/svg" version="1.1" xmlns:xlink="http://www.w3.org/1999/xlink" xmlns:svgjs="http://svgjs.dev/svgjs" viewBox="0 0 800 400"><path d="M386.9955139160156,373.09417724609375C367.8624776204427,364.8729502360026,253.51269022623697,328.8490295410156,272.1972961425781,323.7668151855469C290.88190205891925,318.6846008300781,505.6801274617513,353.2137451171875,499.1031494140625,342.60089111328125C492.5261713663737,331.988037109375,222.2720489501953,268.46039326985675,232.7354278564453,260.0896911621094C243.1988067626953,251.71898905436197,564.1255747477213,304.7832565307617,561.8834228515625,292.3766784667969C559.6412709554037,279.97010040283203,216.1435089111328,197.75784556070963,219.2825164794922,185.6502227783203C222.42152404785156,173.542599995931,572.6457188924154,228.99850463867188,580.7174682617188,219.73094177246094C588.7892176310221,210.46337890625,274.43946329752606,142.60089874267578,267.7130126953125,130.0448455810547C260.98656209309894,117.4887924194336,529.8953857421875,151.56951141357422,540.3587646484375,144.39462280273438C550.8221435546875,137.21973419189453,331.2406717936198,98.50522994995117,330.4932861328125,86.99551391601562C329.7459004720052,75.48579788208008,523.7668304443359,82.21226056416829,535.8744506835938,75.3363265991211C547.9820709228516,68.4603926340739,425.26158142089844,50.67264620463053,403.1390075683594,45.73991012573242" fill="none" stroke-width="7" stroke="#1f3170" stroke-linecap="round" transform="matrix(1.1576250000000001,0,0,1.1576250000000001,-63.12604332923894,-42.426411820888575)"></path><defs><linearGradient id="SvgjsLinearGradient1002"><stop stop-color="hsl(37, 99%, 67%)" offset="0"></stop><stop stop-color="hsl(316, 73%, 52%)" offset="1"></stop></linearGradient></defs></svg>